<?xml version="1.0" encoding="UTF-8"?>
<svg id="Livello_2" data-name="Livello 2" xmlns="http://www.w3.org/2000/svg" viewBox="0 0 1305.02 614.72">
  <defs>
    <style>
      .cls-1, .cls-2, .cls-3 {
        fill: #fff;
      }

      .cls-1, .cls-3 {
        stroke: #fff;
        stroke-miterlimit: 10;
      }

      .cls-3 {
        stroke-width: .25px;
      }
    </style>
  </defs>
  <g id="Logo_confermato_e_varianti" data-name="Logo confermato e varianti">
    <g>
      <g>
        <path class="cls-2" d="M740.33,223.36c0-1.05.35-1.92,1.04-2.59.7-.67,1.6-1.01,2.7-1.01h26.72c1.49,0,2.62.3,3.38.9.77.6,1.15,1.38,1.15,2.34,0,1.1-.26,2.02-.79,2.74-.53.72-1.42,1.32-2.67,1.8l-2.3.72c-1.58.62-3.06,1.58-4.43,2.88s-2.76,2.95-4.18,4.97c-1.42,2.02-3.01,4.42-4.79,7.2l-38.75,60.78c-.77,1.15-1.43,2.24-1.98,3.28-.55,1.03-1,2.17-1.33,3.42l-1.3,4.9c-.43,1.39-1.08,2.56-1.94,3.49-.86.94-2.14,1.4-3.82,1.4h-15.77c-1.58,0-2.7-.55-3.35-1.66-.65-1.1-.71-2.47-.18-4.1l1.58-5.69c.43-1.2.61-2.51.54-3.92-.07-1.42-.13-2.7-.18-3.85.05-1.01.05-2.75,0-5.22-.05-2.47-.1-5.41-.14-8.82s-.1-7.11-.14-11.09c-.05-3.98-.12-8.04-.22-12.17-.1-4.13-.19-8.11-.29-11.96-.1-3.84-.18-7.33-.25-10.48-.07-3.14-.13-5.75-.18-7.81-.05-1.73-.31-3.07-.79-4.03-.48-.96-1.27-1.63-2.38-2.02l-2.59-.79c-.86-.29-1.52-.74-1.98-1.37-.46-.62-.68-1.34-.68-2.16,0-1.06.47-1.93,1.4-2.63.94-.7,2.05-1.04,3.35-1.04h33.13c1.1,0,1.97.28,2.59.83.62.55.94,1.36.94,2.41s-.28,1.93-.83,2.63c-.55.7-1.36,1.17-2.41,1.4l-4.61.94c-1.49.29-2.57,1.09-3.24,2.41-.67,1.32-.98,3.3-.94,5.94,0,1.87.01,4.43.04,7.67.02,3.24.07,6.93.14,11.05.07,4.13.13,8.52.18,13.18.05,4.66.11,9.38.18,14.15.07,4.78.13,9.43.18,13.97.05,4.54.07,8.73.07,12.57l-6.7,2.38,43.71-69.42c1.58-2.5,2.53-4.66,2.84-6.48.31-1.82.13-3.35-.54-4.57-.67-1.22-1.73-2.15-3.17-2.77l-3.1-1.01c-1.97-.96-2.95-2.18-2.95-3.67Z"/>
        <path class="cls-2" d="M766.04,290.69c3.46-1.2,6.57-2.27,9.33-3.21s5.75-1.97,8.97-3.1c3.22-1.13,6.37-2.22,9.47-3.28,3.1-1.06,5.77-1.99,8.03-2.81l-2.09,2.59c.43-1.39.78-3.04,1.04-4.93.26-1.9.4-4.07.4-6.52,0-2.98-.59-5.38-1.76-7.2-1.18-1.82-2.77-2.74-4.79-2.74s-3.96.75-5.98,2.23c-2.02,1.49-3.91,3.58-5.69,6.27-1.78,2.69-3.28,5.86-4.5,9.51-1.22,3.65-2,7.63-2.34,11.96-.53,6.96.48,12.22,3.02,15.77,2.54,3.55,6.29,5.33,11.23,5.33,2.78,0,5.45-.52,7.99-1.55,2.54-1.03,4.86-2.51,6.95-4.43,2.09-1.92,3.83-4.22,5.22-6.91.96-1.3,1.79-2.17,2.49-2.63.7-.46,1.48-.66,2.34-.61.96,0,1.73.43,2.3,1.3s.65,2.23.22,4.11c-.82,3.79-2.71,7.42-5.69,10.87s-6.96,6.25-11.95,8.39c-4.99,2.14-11.02,3.21-18.08,3.21-6.39,0-11.59-1.12-15.63-3.35-4.03-2.23-6.93-5.41-8.68-9.54-1.75-4.13-2.41-9.05-1.98-14.76.43-5.81,1.84-11.26,4.21-16.35,2.38-5.09,5.5-9.59,9.36-13.5,3.86-3.91,8.28-6.97,13.25-9.18,4.97-2.21,10.26-3.31,15.88-3.31,4.27,0,7.81.78,10.62,2.34,2.81,1.56,4.97,3.66,6.48,6.3s2.41,5.62,2.7,8.93c.14.86.38,1.61.72,2.23.33.62.84.99,1.51,1.08.67.1,1.2.32,1.58.68.38.36.58.88.58,1.55,0,.91-.37,1.76-1.12,2.56-.75.79-2.17,1.5-4.29,2.12-2.06.67-4.73,1.54-7.99,2.59-3.27,1.06-6.81,2.2-10.62,3.42-3.82,1.22-7.61,2.46-11.38,3.71-3.77,1.25-7.23,2.38-10.37,3.38s-6.59,2.14-10.33,3.38l-.65-5.91Z"/>
        <path class="cls-2" d="M833.67,269.66c-.67-.33-1.01-.97-1.01-1.91s.36-2.1,1.08-3.49c1.3-2.4,3-4.49,5.11-6.27,2.11-1.78,4.54-3.17,7.27-4.18,2.74-1.01,5.64-1.51,8.71-1.51,2.88,0,5.06.67,6.55,2.02,1.49,1.34,2.23,3.29,2.23,5.83,0,1.92-.38,4.13-1.15,6.63-.77,2.5-1.68,5.1-2.74,7.81-1.06,2.71-2.02,5.32-2.88,7.81-.86,2.5-1.37,4.71-1.51,6.63l-1.3-.29c1.68-6,3.72-11.28,6.12-15.84,2.4-4.56,5.02-8.37,7.85-11.42,2.83-3.05,5.74-5.34,8.71-6.88,2.98-1.54,5.88-2.3,8.71-2.3,3.98,0,7.02,1.18,9.11,3.53,2.09,2.35,3.06,5.45,2.92,9.29-.05,3.12-.67,5.8-1.87,8.03-1.2,2.23-2.73,3.94-4.57,5.11-1.85,1.18-3.85,1.76-6.01,1.76-2.4,0-4.13-.53-5.18-1.58-1.06-1.06-1.58-2.26-1.58-3.6,0-1.15.18-2.26.54-3.31.36-1.05.54-2.16.54-3.31s-.28-1.98-.83-2.63c-.55-.65-1.36-.97-2.41-.97-1.78,0-3.76,1.01-5.94,3.02-2.19,2.02-4.43,5.13-6.73,9.33-2.3,4.2-4.54,9.57-6.7,16.1-1.15,3.36-1.97,6.05-2.45,8.07-.48,2.02-.72,3.84-.72,5.47,0,1.39.28,2.44.83,3.13s1.12,1.38,1.69,2.05c.58.67.86,1.68.86,3.03s-.66,2.66-1.98,3.82-3.29,2.05-5.91,2.7c-2.62.65-5.92.97-9.9.97-2.74,0-4.77-.59-6.08-1.76-1.32-1.18-1.97-2.91-1.94-5.19.02-2.28.64-5.1,1.84-8.46l10.8-31.62c1.3-3.65,1.75-6.18,1.37-7.6-.38-1.42-1.18-2.12-2.38-2.12-.67,0-1.39.19-2.16.58-.77.38-1.73,1.1-2.88,2.16-.91.82-1.67,1.31-2.27,1.48-.6.17-1.19.13-1.76-.11Z"/>
        <path class="cls-2" d="M980.15,236.1l-18.29,63.23c-.72,2.5-1.12,4.47-1.19,5.91-.07,1.44.11,2.47.54,3.1.43.62,1.03.94,1.8.94.72,0,1.46-.2,2.23-.61.77-.41,1.7-1.14,2.81-2.2.91-.77,1.67-1.25,2.27-1.44.6-.19,1.19-.14,1.76.14.67.34,1.02.97,1.04,1.91.02.94-.32,2.1-1.04,3.49-1.25,2.35-2.91,4.41-4.97,6.16-2.06,1.75-4.37,3.12-6.91,4.11-2.55.98-5.14,1.48-7.78,1.48-3.31,0-5.76-.84-7.35-2.52-1.58-1.68-2.38-4.01-2.38-6.99,0-1.49.16-3.18.47-5.08.31-1.9.8-4.18,1.48-6.84.67-2.67,1.56-5.82,2.66-9.47l2.45,1.3c-2.79,6.67-6.03,12.21-9.72,16.6-3.7,4.39-7.62,7.66-11.78,9.79-4.15,2.14-8.34,3.21-12.57,3.21-6.39,0-11.13-2-14.22-6.01s-4.19-10.09-3.28-18.26c.58-6.1,2.28-11.91,5.11-17.43,2.83-5.52,6.52-10.39,11.05-14.62,4.54-4.22,9.7-7.56,15.48-10.01,5.79-2.45,11.94-3.67,18.47-3.67,3.7,0,6.82.53,9.36,1.58,2.54,1.06,4.5,2.48,5.87,4.28,1.37,1.8,2.17,3.85,2.41,6.16l-12.31,1.8c-.43-2.16-1.22-3.77-2.38-4.83-1.15-1.05-2.88-1.58-5.19-1.58-2.74,0-5.44.82-8.1,2.45-2.67,1.63-5.19,3.84-7.56,6.62-2.38,2.79-4.49,5.95-6.34,9.51-1.85,3.55-3.31,7.25-4.39,11.09-1.08,3.84-1.67,7.63-1.76,11.38-.14,3.84.41,6.57,1.66,8.17,1.25,1.61,2.93,2.41,5.04,2.41,1.78,0,3.71-.67,5.8-2.02,2.09-1.34,4.18-3.25,6.27-5.73,2.09-2.47,4.03-5.4,5.83-8.79s3.32-7.09,4.57-11.13l13.04-43.71c1.1-3.65,1.5-6.18,1.19-7.6-.31-1.42-1.07-2.12-2.27-2.12-.67,0-1.4.19-2.2.58-.79.38-1.74,1.11-2.84,2.16-.91.82-1.67,1.31-2.27,1.48-.6.17-1.19.13-1.76-.11-.67-.34-1.02-.97-1.04-1.91s.32-2.1,1.04-3.49c1.3-2.4,2.99-4.49,5.08-6.27,2.09-1.78,4.49-3.17,7.2-4.18,2.71-1.01,5.63-1.51,8.75-1.51,3.6,0,6.24.76,7.92,2.27,1.68,1.51,2.59,3.69,2.74,6.52.14,2.83-.36,6.27-1.51,10.3Z"/>
        <path class="cls-2" d="M993.98,290.69c3.46-1.2,6.57-2.27,9.33-3.21s5.75-1.97,8.97-3.1c3.22-1.13,6.37-2.22,9.47-3.28,3.1-1.06,5.77-1.99,8.03-2.81l-2.09,2.59c.43-1.39.78-3.04,1.04-4.93.26-1.9.4-4.07.4-6.52,0-2.98-.59-5.38-1.76-7.2-1.18-1.82-2.77-2.74-4.79-2.74s-3.96.75-5.98,2.23c-2.02,1.49-3.91,3.58-5.69,6.27-1.78,2.69-3.28,5.86-4.5,9.51-1.22,3.65-2,7.63-2.34,11.96-.53,6.96.48,12.22,3.02,15.77,2.54,3.55,6.29,5.33,11.23,5.33,2.78,0,5.45-.52,7.99-1.55,2.54-1.03,4.86-2.51,6.95-4.43,2.09-1.92,3.83-4.22,5.22-6.91.96-1.3,1.79-2.17,2.49-2.63.7-.46,1.48-.66,2.34-.61.96,0,1.73.43,2.3,1.3s.65,2.23.22,4.11c-.82,3.79-2.71,7.42-5.69,10.87s-6.96,6.25-11.95,8.39c-4.99,2.14-11.02,3.21-18.08,3.21-6.39,0-11.59-1.12-15.63-3.35-4.03-2.23-6.93-5.41-8.68-9.54-1.75-4.13-2.41-9.05-1.98-14.76.43-5.81,1.84-11.26,4.21-16.35,2.38-5.09,5.5-9.59,9.36-13.5,3.86-3.91,8.28-6.97,13.25-9.18,4.97-2.21,10.26-3.31,15.88-3.31,4.27,0,7.81.78,10.62,2.34,2.81,1.56,4.97,3.66,6.48,6.3s2.41,5.62,2.7,8.93c.14.86.38,1.61.72,2.23.33.62.84.99,1.51,1.08.67.1,1.2.32,1.58.68.38.36.58.88.58,1.55,0,.91-.37,1.76-1.12,2.56-.75.79-2.17,1.5-4.29,2.12-2.06.67-4.73,1.54-7.99,2.59-3.27,1.06-6.81,2.2-10.62,3.42-3.82,1.22-7.61,2.46-11.38,3.71-3.77,1.25-7.23,2.38-10.37,3.38s-6.59,2.14-10.33,3.38l-.65-5.91Z"/>
        <path class="cls-2" d="M705.48,470.46c-4.13,0-7.57-.4-10.33-1.19-2.76-.79-4.99-1.7-6.7-2.74-1.7-1.03-3.06-1.94-4.07-2.74-1.01-.79-1.83-1.19-2.45-1.19s-1.34.36-2.16,1.08c-.82.72-1.67,1.56-2.56,2.52-.89.96-1.8,1.81-2.74,2.56-.94.74-1.86,1.12-2.77,1.12-1.39,0-2.44-.38-3.13-1.15-.7-.77-.97-1.97-.83-3.6l2.95-25.06c.14-1.73.61-3.05,1.4-3.96.79-.91,1.81-1.37,3.06-1.37,1.15,0,2.11.41,2.88,1.22.77.82,1.46,2.04,2.09,3.67l1.51,7.2c.91,5.23,3.17,9.22,6.77,11.96,3.6,2.74,7.87,4.1,12.82,4.1,3.12,0,5.86-.55,8.21-1.66,2.35-1.1,4.25-2.66,5.69-4.68s2.35-4.37,2.74-7.06c.72-4.08,0-7.9-2.16-11.45-2.16-3.55-6.43-7.32-12.82-11.31-7.25-4.56-12.4-9.23-15.45-14.01-3.05-4.78-4.19-10.38-3.42-16.82.58-5.33,2.45-10.26,5.62-14.8s7.6-8.2,13.29-10.98,12.59-4.18,20.71-4.18c6.96,0,12.82,1.12,17.57,3.35,4.75,2.23,8.33,5.1,10.73,8.61,2.4,3.5,3.53,7.18,3.38,11.02-.14,2.69-.91,4.92-2.3,6.7-1.39,1.78-3.31,2.66-5.76,2.66-2.07,0-3.73-.56-5-1.69-1.27-1.13-2.34-2.99-3.21-5.58l-1.44-5.4c-1.15-4.32-3.04-7.53-5.65-9.61-2.62-2.09-5.82-3.13-9.61-3.13s-6.73.7-9.4,2.09c-2.67,1.39-4.79,3.27-6.37,5.62-1.58,2.35-2.57,4.99-2.95,7.92-.62,4.37.22,8.38,2.52,12.03,2.3,3.65,6.5,7.54,12.6,11.67,5.86,3.79,10.33,7.39,13.43,10.8,3.1,3.41,5.17,6.85,6.23,10.33,1.06,3.48,1.34,7.24.86,11.27-.53,5.14-2.28,9.64-5.26,13.5-2.98,3.87-6.91,6.89-11.81,9.07-4.9,2.18-10.47,3.28-16.71,3.28Z"/>
        <path class="cls-2" d="M793.99,397.43l-24.77,90.31c-.58,2.16-.7,3.77-.36,4.83.33,1.05,1.37,1.75,3.1,2.09l4.39.72c1.34.29,2.3.73,2.88,1.33.58.6.86,1.33.86,2.2.05,1.06-.38,1.93-1.3,2.63-.91.7-2.11,1.07-3.6,1.12l-32.41.72c-1.2.05-2.15-.23-2.84-.83-.7-.6-1.04-1.38-1.04-2.34s.28-1.71.83-2.38c.55-.67,1.53-1.34,2.92-2.02,1.49-.58,2.67-1.13,3.53-1.66.86-.53,1.55-1.18,2.05-1.94.5-.77.9-1.73,1.19-2.88l26.07-91.46c.43-1.49,1.01-2.81,1.73-3.96.72-1.15,1.56-2.16,2.52-3.03.96-.86,1.99-1.58,3.1-2.16s2.22-1.01,3.35-1.3c1.13-.29,2.22-.43,3.28-.43,2.54,0,4.18.85,4.9,2.56.72,1.71.6,4.33-.36,7.89ZM763.02,421.13c-.96.82-1.96,1.3-2.99,1.44-1.03.14-1.88-.12-2.56-.79-.67-.72-.82-1.69-.43-2.92.38-1.22,1.18-2.39,2.38-3.49,3.31-3.17,7.01-5.89,11.09-8.17,4.08-2.28,8.52-4.01,13.32-5.19,4.8-1.18,9.91-1.69,15.34-1.55,6.62.14,12.19,1.58,16.71,4.32,4.51,2.74,7.78,6.71,9.79,11.92,2.02,5.21,2.54,11.56,1.58,19.05-.96,7.15-3.21,13.36-6.73,18.62-3.53,5.26-7.95,9.29-13.25,12.1-5.31,2.81-11.08,4.14-17.32,4-5.71-.1-10.35-1.32-13.9-3.67-3.55-2.35-5.88-5.45-6.99-9.29l5.69-2.74c1.1,2.3,2.52,4.08,4.25,5.33,1.73,1.25,3.79,1.94,6.19,2.09,3.31.1,6.45-.86,9.4-2.88,2.95-2.02,5.53-5.19,7.74-9.51,2.21-4.32,3.84-9.87,4.9-16.64.82-5.33.84-9.82.07-13.47-.77-3.65-2.16-6.46-4.18-8.43-2.02-1.97-4.56-3.07-7.63-3.31-4.9-.48-10.11.3-15.63,2.34-5.52,2.04-11.14,5.65-16.85,10.84Z"/>
        <path class="cls-2" d="M846.7,438.84c3.46-1.2,6.57-2.27,9.33-3.2,2.76-.94,5.75-1.97,8.97-3.1,3.22-1.13,6.37-2.22,9.47-3.28,3.1-1.06,5.77-1.99,8.03-2.81l-2.09,2.59c.43-1.39.78-3.04,1.04-4.93.26-1.9.4-4.07.4-6.52,0-2.98-.59-5.38-1.76-7.2-1.18-1.82-2.77-2.74-4.79-2.74s-3.96.75-5.98,2.23c-2.02,1.49-3.91,3.58-5.69,6.27-1.78,2.69-3.28,5.86-4.5,9.51-1.22,3.65-2,7.63-2.34,11.96-.53,6.96.48,12.22,3.02,15.77,2.54,3.55,6.29,5.33,11.23,5.33,2.78,0,5.45-.52,7.99-1.55s4.86-2.51,6.95-4.43c2.09-1.92,3.83-4.22,5.22-6.91.96-1.3,1.79-2.17,2.49-2.63.7-.46,1.48-.66,2.34-.61.96,0,1.73.43,2.3,1.3s.65,2.23.22,4.11c-.82,3.79-2.71,7.42-5.69,10.87-2.98,3.46-6.96,6.25-11.95,8.39-4.99,2.14-11.02,3.21-18.08,3.21-6.39,0-11.59-1.12-15.63-3.35-4.03-2.23-6.93-5.41-8.68-9.54-1.75-4.13-2.41-9.05-1.98-14.76.43-5.81,1.84-11.26,4.21-16.35,2.38-5.09,5.5-9.59,9.36-13.5,3.86-3.91,8.28-6.97,13.25-9.18,4.97-2.21,10.26-3.31,15.88-3.31,4.27,0,7.81.78,10.62,2.34,2.81,1.56,4.97,3.66,6.48,6.3,1.51,2.64,2.41,5.62,2.7,8.93.14.87.38,1.61.72,2.23.33.62.84.98,1.51,1.08.67.1,1.2.32,1.58.68.38.36.58.88.58,1.55,0,.91-.37,1.76-1.12,2.56-.75.79-2.17,1.5-4.29,2.12-2.06.67-4.73,1.54-7.99,2.59-3.27,1.06-6.81,2.2-10.62,3.42-3.82,1.22-7.61,2.46-11.38,3.71-3.77,1.25-7.23,2.38-10.37,3.38-3.14,1.01-6.59,2.14-10.33,3.38l-.65-5.91Z"/>
        <path class="cls-2" d="M914.33,417.81c-.67-.33-1.01-.97-1.01-1.91s.36-2.1,1.08-3.49c1.3-2.4,3-4.49,5.11-6.27,2.11-1.78,4.54-3.17,7.27-4.18,2.74-1.01,5.64-1.51,8.71-1.51,2.88,0,5.06.67,6.55,2.02,1.49,1.34,2.23,3.29,2.23,5.83,0,1.92-.38,4.13-1.15,6.63-.77,2.5-1.68,5.1-2.74,7.81-1.06,2.71-2.02,5.32-2.88,7.81-.86,2.5-1.37,4.71-1.51,6.63l-1.3-.29c1.68-6,3.72-11.28,6.12-15.84,2.4-4.56,5.02-8.37,7.85-11.42,2.83-3.05,5.74-5.34,8.71-6.88,2.98-1.54,5.88-2.3,8.71-2.3,3.98,0,7.02,1.18,9.11,3.53,2.09,2.35,3.06,5.45,2.92,9.29-.05,3.12-.67,5.8-1.87,8.03-1.2,2.23-2.73,3.94-4.57,5.11-1.85,1.18-3.85,1.76-6.01,1.76-2.4,0-4.13-.53-5.18-1.58-1.06-1.05-1.58-2.26-1.58-3.6,0-1.15.18-2.26.54-3.31.36-1.06.54-2.16.54-3.31s-.28-1.98-.83-2.63c-.55-.65-1.36-.97-2.41-.97-1.78,0-3.76,1.01-5.94,3.02-2.19,2.02-4.43,5.13-6.73,9.33-2.3,4.2-4.54,9.57-6.7,16.1-1.15,3.36-1.97,6.05-2.45,8.07-.48,2.02-.72,3.84-.72,5.47,0,1.39.28,2.44.83,3.13.55.7,1.12,1.38,1.69,2.05.58.67.86,1.68.86,3.02s-.66,2.67-1.98,3.82c-1.32,1.15-3.29,2.05-5.91,2.7-2.62.65-5.92.97-9.9.97-2.74,0-4.77-.59-6.08-1.76-1.32-1.18-1.97-2.9-1.94-5.19.02-2.28.64-5.1,1.84-8.46l10.8-31.62c1.3-3.65,1.75-6.18,1.37-7.6-.38-1.42-1.18-2.12-2.38-2.12-.67,0-1.39.19-2.16.58-.77.38-1.73,1.1-2.88,2.16-.91.82-1.67,1.31-2.27,1.48-.6.17-1.19.13-1.76-.11Z"/>
        <path class="cls-2" d="M1039.57,447.56c-.91,3.75-1.2,6.33-.86,7.74.34,1.42,1.03,2.12,2.09,2.12.72,0,1.45-.22,2.2-.65.74-.43,1.69-1.15,2.84-2.16.91-.77,1.67-1.25,2.27-1.44.6-.19,1.19-.14,1.76.14.67.34,1.01.97,1.01,1.91s-.36,2.1-1.08,3.49c-1.87,3.55-4.65,6.4-8.32,8.53s-7.48,3.21-11.41,3.21c-3.31,0-5.74-.83-7.27-2.48-1.54-1.66-2.3-4-2.3-7.02,0-1.15.07-2.39.22-3.71.14-1.32.4-2.87.76-4.64s.88-3.86,1.55-6.27c.67-2.4,1.51-5.26,2.52-8.57l1.58,3.6c-2.16,6.1-4.99,11.32-8.5,15.66-3.5,4.35-7.41,7.67-11.7,9.97s-8.75,3.46-13.36,3.46c-5.62,0-9.95-1.84-13-5.51s-4.17-9.37-3.35-17.1c.48-4.71,1.69-9.35,3.64-13.94s4.54-8.89,7.78-12.93c3.24-4.03,7.02-7.59,11.34-10.66s9.1-5.48,14.33-7.24c5.23-1.75,10.83-2.63,16.78-2.63,4.99,0,9.13.36,12.42,1.08,3.29.72,5.71,1.67,7.27,2.84,1.56,1.18,2.24,2.53,2.05,4.07-.14,1.25-.58,2.19-1.3,2.81-.72.62-1.46,1.25-2.23,1.87-.77.62-1.32,1.58-1.66,2.88l-8.07,31.54ZM997.44,447.34c-.43,4.51-.11,7.67.97,9.47,1.08,1.8,2.6,2.7,4.57,2.7s3.88-.76,6.01-2.27c2.14-1.51,4.27-3.64,6.41-6.37,2.14-2.74,4.15-5.92,6.05-9.54,1.9-3.62,3.56-7.56,5-11.81s2.5-8.63,3.17-13.14c.48-2.88.38-4.98-.29-6.3-.67-1.32-1.85-1.98-3.53-1.98-2.55,0-5.09.74-7.63,2.23-2.55,1.49-4.97,3.55-7.27,6.19s-4.41,5.64-6.3,9c-1.9,3.36-3.47,6.9-4.72,10.62-1.25,3.72-2.06,7.45-2.45,11.2Z"/>
        <path class="cls-2" d="M1065.78,417.81c-.67-.33-1.02-.97-1.04-1.91-.03-.94.32-2.1,1.04-3.49,1.97-3.6,4.85-6.49,8.64-8.68,3.79-2.18,8.09-3.28,12.89-3.28,3.12,0,5.54.66,7.27,1.98,1.73,1.32,2.59,3.25,2.59,5.8,0,1.49-.32,3.19-.97,5.11-.65,1.92-1.49,4.1-2.52,6.55-1.03,2.45-2.2,5.25-3.49,8.39-1.3,3.15-2.59,6.71-3.89,10.69l-1.01-2.23c2.69-6.87,5.74-12.61,9.15-17.25,3.41-4.63,6.95-8.35,10.62-11.16,3.67-2.81,7.31-4.83,10.91-6.05s6.91-1.84,9.94-1.84c4.27,0,7.35.93,9.22,2.77,1.87,1.85,2.8,4.42,2.77,7.71-.03,3.29-.83,7.17-2.41,11.63l-8.79,24.99c-1.3,3.6-1.76,6.12-1.4,7.56s1.12,2.16,2.27,2.16c.72,0,1.46-.22,2.23-.65.77-.43,1.7-1.15,2.81-2.16.91-.82,1.67-1.32,2.27-1.51.6-.19,1.19-.14,1.76.14.67.38,1.02,1.03,1.04,1.94.02.91-.32,2.09-1.04,3.53-1.92,3.6-4.75,6.48-8.5,8.64-3.75,2.16-7.99,3.24-12.75,3.24-3.6,0-6.29-.76-8.07-2.27-1.78-1.51-2.71-3.7-2.81-6.55-.1-2.86.55-6.23,1.95-10.12l8.93-25.49c1.58-4.22,2.14-7.25,1.66-9.07-.48-1.82-1.9-2.74-4.25-2.74-1.78,0-3.75.58-5.91,1.73s-4.37,2.84-6.63,5.08-4.42,5-6.48,8.32c-2.06,3.31-3.89,7.13-5.47,11.45-.96,2.74-1.75,5.02-2.38,6.84-.62,1.83-1.07,3.31-1.33,4.46-.26,1.15-.4,2.16-.4,3.03,0,1.34.23,2.53.68,3.56.46,1.03.68,2.25.68,3.64,0,2.45-1.43,4.42-4.29,5.91-2.86,1.49-6.76,2.23-11.7,2.23-3.75,0-6.03-1.32-6.84-3.96-.82-2.64-.29-6.51,1.58-11.6l11.38-31.47c1.34-3.65,1.84-6.18,1.48-7.6-.36-1.42-1.14-2.12-2.34-2.12-.67,0-1.4.19-2.2.58-.79.38-1.74,1.1-2.84,2.16-.91.82-1.67,1.31-2.27,1.48-.6.17-1.19.13-1.76-.11Z"/>
        <path class="cls-2" d="M1174.89,448.57c2.11,0,4.55.29,7.31.86,2.76.58,5.55,1.16,8.35,1.76,2.81.6,5.39.9,7.74.9,3.36,0,5.99-.5,7.89-1.51,1.9-1.01,3.28-2.69,4.14-5.04.62-1.1,1.16-1.85,1.62-2.23.46-.38.97-.58,1.55-.58.72,0,1.27.31,1.66.94.38.62.58,1.68.58,3.17,0,4.75-1.07,8.91-3.21,12.46-2.14,3.55-4.96,6.3-8.46,8.25-3.5,1.94-7.32,2.92-11.45,2.92-3.02,0-5.63-.5-7.81-1.51-2.19-1.01-4.06-2.26-5.62-3.75-1.56-1.49-2.91-2.96-4.03-4.43-1.13-1.46-2.19-2.7-3.17-3.71-.98-1.01-1.98-1.51-2.99-1.51-.91,0-1.75.5-2.52,1.51-.77,1.01-1.53,2.25-2.27,3.71-.75,1.46-1.61,2.94-2.59,4.43-.99,1.49-2.14,2.74-3.46,3.75-1.32,1.01-2.92,1.51-4.79,1.51-2.02,0-3.64-.57-4.86-1.69-1.22-1.13-1.84-2.77-1.84-4.93,0-1.63.43-3.26,1.3-4.9.86-1.63,2.23-3.19,4.1-4.68,1.87-1.49,4.34-2.78,7.42-3.89,1.54-.53,3.06-1.2,4.57-2.02s3.1-1.81,4.75-2.99c1.66-1.18,3.46-2.59,5.4-4.25s4.09-3.59,6.45-5.8c3.46-3.07,6.46-5.71,9-7.92,2.54-2.21,4.6-4.02,6.16-5.44,1.56-1.42,2.65-2.46,3.28-3.13l-.43,3.24c-1.68,0-3.87-.31-6.55-.94-2.69-.62-5.54-1.36-8.57-2.2-3.02-.84-5.91-1.57-8.64-2.2-2.74-.62-4.99-.94-6.77-.94-2.02,0-3.53.32-4.54.97-1.01.65-1.51,1.5-1.51,2.56,0,.53.2,1.07.61,1.62.41.55,1.16,1.17,2.27,1.84,1.1.53,1.87,1.12,2.3,1.76.43.65.65,1.4.65,2.27,0,1.39-.49,2.52-1.48,3.38-.99.86-2.27,1.3-3.85,1.3-2.45,0-4.45-.85-6.01-2.56-1.56-1.7-2.34-4.17-2.34-7.38,0-3.55.89-6.92,2.66-10.12,1.78-3.19,4.3-5.82,7.56-7.89,3.26-2.06,7.13-3.1,11.59-3.1,3.5,0,6.47.47,8.89,1.4,2.42.94,4.48,2.09,6.16,3.46,1.68,1.37,3.16,2.74,4.43,4.11,1.27,1.37,2.46,2.52,3.57,3.46,1.1.94,2.28,1.4,3.53,1.4.91,0,1.73-.47,2.45-1.4.72-.94,1.43-2.09,2.12-3.46.7-1.37,1.48-2.74,2.34-4.11.86-1.37,1.9-2.52,3.1-3.46,1.2-.94,2.71-1.4,4.54-1.4,2.21,0,3.85.66,4.93,1.98,1.08,1.32,1.62,3.04,1.62,5.15,0,3.03-.76,5.49-2.27,7.38-1.51,1.9-3.95,3.37-7.31,4.43-1.15.38-2.39.92-3.71,1.62-1.32.7-2.79,1.63-4.39,2.81-1.61,1.18-3.47,2.64-5.58,4.39-2.11,1.75-4.49,3.9-7.13,6.45-3.7,3.12-6.79,5.75-9.29,7.89-2.5,2.14-4.57,3.91-6.23,5.33-1.66,1.42-3.04,2.63-4.14,3.64l1.22-2.95Z"/>
        <path class="cls-2" d="M1287.45,447.56c-.91,3.75-1.2,6.33-.86,7.74.34,1.42,1.03,2.12,2.09,2.12.72,0,1.45-.22,2.2-.65.74-.43,1.69-1.15,2.84-2.16.91-.77,1.67-1.25,2.27-1.44.6-.19,1.19-.14,1.76.14.67.34,1.01.97,1.01,1.91s-.36,2.1-1.08,3.49c-1.87,3.55-4.65,6.4-8.32,8.53s-7.48,3.21-11.41,3.21c-3.31,0-5.74-.83-7.27-2.48-1.54-1.66-2.3-4-2.3-7.02,0-1.15.07-2.39.22-3.71.14-1.32.4-2.87.76-4.64s.88-3.86,1.55-6.27c.67-2.4,1.51-5.26,2.52-8.57l1.58,3.6c-2.16,6.1-4.99,11.32-8.5,15.66-3.5,4.35-7.41,7.67-11.7,9.97s-8.75,3.46-13.36,3.46c-5.62,0-9.95-1.84-13-5.51s-4.17-9.37-3.35-17.1c.48-4.71,1.69-9.35,3.64-13.94s4.54-8.89,7.78-12.93c3.24-4.03,7.02-7.59,11.34-10.66s9.1-5.48,14.33-7.24c5.23-1.75,10.83-2.63,16.78-2.63,4.99,0,9.13.36,12.42,1.08,3.29.72,5.71,1.67,7.27,2.84,1.56,1.18,2.24,2.53,2.05,4.07-.14,1.25-.58,2.19-1.3,2.81-.72.62-1.46,1.25-2.23,1.87-.77.62-1.32,1.58-1.66,2.88l-8.07,31.54ZM1245.32,447.34c-.43,4.51-.11,7.67.97,9.47,1.08,1.8,2.6,2.7,4.57,2.7s3.88-.76,6.01-2.27c2.14-1.51,4.27-3.64,6.41-6.37,2.14-2.74,4.15-5.92,6.05-9.54,1.9-3.62,3.56-7.56,5-11.81s2.5-8.63,3.17-13.14c.48-2.88.38-4.98-.29-6.3-.67-1.32-1.85-1.98-3.53-1.98-2.55,0-5.09.74-7.63,2.23-2.55,1.49-4.97,3.55-7.27,6.19s-4.41,5.64-6.3,9c-1.9,3.36-3.47,6.9-4.72,10.62-1.25,3.72-2.06,7.45-2.45,11.2Z"/>
      </g>
      <path class="cls-2" d="M33.7,499.71c84.92-16.76,151.12-7.42,202.96,12.92,19.14,7.51,27.17,12.93,47.13,21,67.38,27.24,135.9,30.18,198.39,22.16-29.63,19.43-91.81,54.25-176.95,58.51-46.42,2.32-82.61-5.3-100.88-10-87.47-22.49-144.18-75.66-170.64-104.59Z"/>
      <g>
        <path class="cls-2" d="M291.15,607.96c-28.66,0-56.86-3.51-83.81-10.44-81.11-20.85-137.7-68.46-170.89-104.73l-.6-.66.87-.17c29.14-5.75,57.52-8.67,84.35-8.67,42.34,0,82.34,7.27,118.89,21.61,9.84,3.86,16.64,7.12,23.84,10.57,6.68,3.2,13.59,6.51,23.29,10.43,42.71,17.27,89.45,26.03,138.93,26.03,19.13,0,39.05-1.31,59.21-3.9l2.15-.28-1.82,1.19c-37.45,24.56-98.6,54.66-177.2,58.59-5.71.29-11.5.43-17.22.43Z"/>
        <path class="cls-2" d="M121.07,483.78c46.25,0,85.44,8.52,118.71,21.58,19.14,7.51,27.17,12.93,47.13,21,46.61,18.85,93.79,26.06,139.12,26.06,20.19,0,40.01-1.43,59.27-3.9-29.63,19.43-91.81,54.25-176.95,58.51-5.9.29-11.64.43-17.2.43-38.14,0-67.74-6.33-83.68-10.43-87.47-22.49-144.18-75.66-170.64-104.59,30.42-6,58.44-8.66,84.25-8.66M121.07,482.78v1.27-.27s0-1,0-1c-26.86,0-55.27,2.92-84.45,8.68l-1.74.34,1.2,1.31c33.24,36.32,89.91,84,171.13,104.88,26.99,6.94,55.23,10.46,83.93,10.46,5.73,0,11.53-.14,17.25-.43,78.71-3.93,139.95-34.08,177.45-58.67l3.63-2.38-4.31.55c-20.13,2.58-40.03,3.89-59.14,3.89-49.41,0-96.09-8.74-138.74-25.99-9.68-3.91-16.59-7.22-23.26-10.42-7.21-3.45-14.02-6.72-23.88-10.58-36.61-14.36-76.67-21.64-119.07-21.64h0Z"/>
      </g>
      <path class="cls-2" d="M42.97,472.76c44.71-27.36,111.08-56.6,187.03-43.27,5.74,1.01,13.98,3.08,30.47,7.24,104.27,26.28,129.64,47.57,192.98,48.93,23.78.51,40.54-2.06,46.1-2.98,45.31-7.5,79.14-26.92,99.42-41.03-12.64,22.53-43.45,69.47-99.21,87.14-19.35,6.13-36.27,7.02-52.54,6.69-98.99-1.98-155.07-48.37-233.64-67.19-37.8-9.06-94.59-15.04-170.6,4.46Z"/>
      <path class="cls-1" d="M46.08,462.39c44.71-27.36,111.08-56.6,187.03-43.27,5.74,1.01,13.98,3.08,30.47,7.24,104.27,26.28,129.64,47.57,192.98,48.93,23.78.51,40.54-2.06,46.1-2.98,45.31-7.5,79.14-26.92,99.42-41.03-12.64,22.53-43.45,69.47-99.21,87.14-19.35,6.13-36.27,7.02-52.54,6.69-98.99-1.98-155.07-48.37-233.64-67.19-37.8-9.06-94.59-15.04-170.6,4.46Z"/>
      <path class="cls-2" d="M304.26,178.02s-105.21-86.25-.06-177.88l.17-.15.24.21c7.01,5.9,101.24,89.02-.34,177.81Z"/>
      <path class="cls-2" d="M274.06,281.22s-129.54-40.47-71.24-166.97l.09-.2.3.1c8.7,2.84,127.07,44.59,70.85,167.06Z"/>
      <path class="cls-2" d="M211.34,270.15s-122.61,58.18-165.63-74.29l-.07-.21.29-.13c8.32-3.81,123.59-53.48,165.41,74.63Z"/>
      <path class="cls-2" d="M267.37,379.09s-122.61,58.18-165.63-74.29l-.07-.21.29-.13c8.32-3.81,123.59-53.48,165.41,74.63Z"/>
      <path class="cls-2" d="M92.87,282.09S69.46,352.73.11,320.64l-.11-.05.06-.16c1.64-4.74,25.67-69.28,92.81-38.33Z"/>
      <path class="cls-2" d="M607.2,250.46s-12.59,73.35-85.95,51.98l-.12-.03.03-.17c.91-4.93,15.02-72.34,86.04-51.78Z"/>
      <path class="cls-2" d="M431.92,20.4s11.05,73.6-65.32,76.31h-.12s-.02-.17-.02-.17c-.68-4.97-8.42-73.4,65.46-76.14Z"/>
      <path class="cls-2" d="M188.43,10.41s73.38,12.39,52.2,85.82l-.03.12-.17-.03c-4.94-.9-72.38-14.83-52-85.9Z"/>
      <path class="cls-2" d="M337.56,276.99s-60.31-121.58,71.4-166.9l.21-.07.13.29c3.96,8.25,55.62,122.64-71.74,166.69Z"/>
      <path class="cls-2" d="M401.44,276.43s31.18-132.08,161.49-82.91l.21.08-.08.31c-2.22,8.88-35.47,129.91-161.62,82.53Z"/>
      <path class="cls-2" d="M342.42,378.39s45.38-127.9,169.56-64.82l.2.1-.11.29c-3.17,8.58-49.41,125.27-169.65,64.43Z"/>
      <path class="cls-2" d="M214.71,289.97s68.43,48.15,75.04,81.27c6.61,33.12-9.72,93.14-9.72,93.14h52.58s-21.49-62.37-13.32-93.14c8.16-30.77,60.54-74.78,66.99-75.77,6.22-.95-27.86,5.38-64.93,33.32-1.81,1.37-4.38.21-4.62-2.1l-12.13-119.34-12.16,118.85c-.4,3.87-4.9,5.62-7.67,2.98-13.32-12.74-44.12-39.22-70.07-39.22Z"/>
      <circle class="cls-2" cx="145.93" cy="133.36" r="40.91"/>
      <circle class="cls-3" cx="68.51" cy="366.21" r="29.73"/>
      <circle class="cls-3" cx="461.77" cy="148.21" r="29.73"/>
      <circle class="cls-2" cx="515.16" cy="411.77" r="40.91"/>
    </g>
  </g>
</svg>