<?xml version="1.0" encoding="UTF-8"?>
<svg id="Livello_2" data-name="Livello 2" xmlns="http://www.w3.org/2000/svg" viewBox="0 0 607.2 614.72">
  <defs>
    <style>
      .cls-1 {
        fill: #f4c744;
        stroke: #f4f3e7;
        stroke-width: .25px;
      }

      .cls-1, .cls-2 {
        stroke-miterlimit: 10;
      }

      .cls-3 {
        fill: #8bc540;
      }

      .cls-4 {
        fill: #e47824;
      }

      .cls-2 {
        fill: none;
        stroke: #1aaecf;
      }

      .cls-5 {
        fill: #6b4322;
      }

      .cls-6 {
        fill: #1aaecf;
      }

      .cls-7 {
        fill: #5d852c;
      }

      .cls-8 {
        fill: #5d852c;
      }
    </style>
  </defs>
  <g id="Livello_13" data-name="Livello 13">
    <path class="cls-5" d="M33.7,499.71c84.92-16.76,151.12-7.42,202.96,12.92,19.14,7.51,27.17,12.93,47.13,21,67.38,27.24,135.9,30.18,198.39,22.16-29.63,19.43-91.81,54.25-176.95,58.51-46.42,2.32-82.61-5.3-100.88-10-87.47-22.49-144.18-75.66-170.64-104.59Z"/>
    <path class="cls-6" d="M121.07,483.78c46.25,0,85.44,8.52,118.71,21.58,19.14,7.51,27.17,12.93,47.13,21,46.61,18.85,93.79,26.06,139.12,26.06,20.19,0,40.01-1.43,59.27-3.9-29.63,19.43-91.81,54.25-176.95,58.51-5.9.29-11.64.43-17.2.43-38.14,0-67.74-6.33-83.68-10.43-87.47-22.49-144.18-75.66-170.64-104.59,30.42-6,58.44-8.66,84.25-8.66M121.07,482.78v1.27-.27s0-1,0-1c-26.86,0-55.27,2.92-84.45,8.68l-1.74.34,1.2,1.31c33.24,36.32,89.91,84,171.13,104.88,26.99,6.94,55.23,10.46,83.93,10.46,5.73,0,11.53-.14,17.25-.43,78.71-3.93,139.95-34.08,177.45-58.67l3.63-2.38-4.31.55c-20.13,2.58-40.03,3.89-59.14,3.89-49.41,0-96.09-8.74-138.74-25.99-9.68-3.91-16.59-7.22-23.26-10.42-7.21-3.45-14.02-6.72-23.88-10.58-36.61-14.36-76.67-21.64-119.07-21.64h0Z"/>
    <path class="cls-5" d="M42.97,472.76c44.71-27.36,111.08-56.6,187.03-43.27,5.74,1.01,13.98,3.08,30.47,7.24,104.27,26.28,129.64,47.57,192.98,48.93,23.78.51,40.54-2.06,46.1-2.98,45.31-7.5,79.14-26.92,99.42-41.03-12.64,22.53-43.45,69.47-99.21,87.14-19.35,6.13-36.27,7.02-52.54,6.69-98.99-1.98-155.07-48.37-233.64-67.19-37.8-9.06-94.59-15.04-170.6,4.46Z"/>
    <path class="cls-2" d="M46.08,462.39c44.71-27.36,111.08-56.6,187.03-43.27,5.74,1.01,13.98,3.08,30.47,7.24,104.27,26.28,129.64,47.57,192.98,48.93,23.78.51,40.54-2.06,46.1-2.98,45.31-7.5,79.14-26.92,99.42-41.03-12.64,22.53-43.45,69.47-99.21,87.14-19.35,6.13-36.27,7.02-52.54,6.69-98.99-1.98-155.07-48.37-233.64-67.19-37.8-9.06-94.59-15.04-170.6,4.46Z"/>
    <path class="cls-3" d="M304.26,178.02s-105.21-86.25-.06-177.88l.17-.15.24.21c7.01,5.9,101.24,89.02-.34,177.81Z"/>
    <path class="cls-3" d="M274.06,281.22s-129.54-40.47-71.24-166.97l.09-.2.3.1c8.7,2.84,127.07,44.59,70.85,167.06Z"/>
    <path class="cls-3" d="M211.34,270.15s-122.61,58.18-165.63-74.29l-.07-.21.29-.13c8.32-3.81,123.59-53.48,165.41,74.63Z"/>
    <path class="cls-3" d="M267.37,379.09s-122.61,58.18-165.63-74.29l-.07-.21.29-.13c8.32-3.81,123.59-53.48,165.41,74.63Z"/>
    <path class="cls-7" d="M92.87,282.09S69.46,352.73.11,320.64l-.11-.05.06-.16c1.64-4.74,25.67-69.28,92.81-38.33Z"/>
    <path class="cls-8" d="M607.2,250.46s-12.59,73.35-85.95,51.98l-.12-.03.03-.17c.91-4.93,15.02-72.34,86.04-51.78Z"/>
    <path class="cls-7" d="M431.92,20.4s11.05,73.6-65.32,76.31h-.12s-.02-.17-.02-.17c-.68-4.97-8.42-73.4,65.46-76.14Z"/>
    <path class="cls-7" d="M188.43,10.41s73.38,12.39,52.2,85.82l-.03.12-.17-.03c-4.94-.9-72.38-14.83-52-85.9Z"/>
    <path class="cls-3" d="M337.56,276.99s-60.31-121.58,71.4-166.9l.21-.07.13.29c3.96,8.25,55.62,122.64-71.74,166.69Z"/>
    <path class="cls-3" d="M401.44,276.43s31.18-132.08,161.49-82.91l.21.08-.08.31c-2.22,8.88-35.47,129.91-161.62,82.53Z"/>
    <path class="cls-3" d="M342.42,378.39s45.38-127.9,169.56-64.82l.2.1-.11.29c-3.17,8.58-49.41,125.27-169.65,64.43Z"/>
    <path class="cls-5" d="M214.71,289.97s68.43,48.15,75.04,81.27c6.61,33.12-9.72,93.14-9.72,93.14h52.58s-21.49-62.37-13.32-93.14c8.16-30.77,60.54-74.78,66.99-75.77,6.22-.95-27.86,5.38-64.93,33.32-1.81,1.37-4.38.21-4.62-2.1l-12.13-119.34-12.16,118.85c-.4,3.87-4.9,5.62-7.67,2.98-13.32-12.74-44.12-39.22-70.07-39.22Z"/>
    <circle class="cls-4" cx="145.93" cy="133.36" r="40.91"/>
    <circle class="cls-1" cx="68.51" cy="366.21" r="29.73"/>
    <circle class="cls-1" cx="461.77" cy="148.21" r="29.73"/>
    <circle class="cls-4" cx="515.16" cy="411.77" r="40.91"/>
  </g>
</svg>